<?xml version="1.0" encoding="utf-8"?>
<!-- Generator: Adobe Illustrator 24.1.0, SVG Export Plug-In . SVG Version: 6.00 Build 0)  -->
<svg version="1.1" id="Layer_1" xmlns="http://www.w3.org/2000/svg" xmlns:xlink="http://www.w3.org/1999/xlink" x="0px" y="0px"
	 viewBox="0 0 210 30" enable-background="new 0 0 210 30" xml:space="preserve">
<g>
	<path fill="#B0B0AF" d="M39.2,6h4.6c3.3,0,5.9,1.3,5.9,4.8v0.1c0,3.5-2.5,4.9-5.9,4.9h-3.2v7.4h-1.3V6z M43.8,14.8
		c2.8,0,4.4-1.2,4.4-3.8v-0.1c0-2.8-1.8-3.7-4.5-3.7h-3.3v7.7H43.8z"/>
	<path fill="#B0B0AF" d="M50,17v-0.2c0-3.8,2.7-6.4,6.1-6.4c3.4,0,6.1,2.6,6.1,6.4V17c0,3.8-2.7,6.4-6.1,6.4
		C52.6,23.4,50,20.7,50,17z M60.8,17v-0.2c0-3.3-2.1-5.3-4.7-5.3c-2.7,0-4.8,2-4.8,5.3V17c0,3.2,2,5.3,4.8,5.3
		C58.8,22.3,60.8,20.3,60.8,17z"/>
	<path fill="#B0B0AF" d="M62.5,10.6h1.4l3.4,11l3.4-11h1.1l3.3,11l3.4-11h1.3l-4,12.6h-1.5l-3.1-10.6l-3.3,10.6h-1.4L62.5,10.6z"/>
	<path fill="#B0B0AF" d="M80.1,17v-0.2c0-3.8,2.4-6.4,5.8-6.4c3,0,5.5,2,5.5,6.1V17h-10c0,3.4,1.7,5.3,4.7,5.3c2.1,0,3.5-0.9,4-2.6
		h1.3c-0.5,2.4-2.5,3.7-5.2,3.7C82.4,23.4,80.1,20.8,80.1,17z M90,16c-0.1-3.1-1.7-4.5-4.2-4.5c-2.4,0-4.2,1.7-4.4,4.5H90z"/>
	<path fill="#B0B0AF" d="M93.1,10.6h1.3v2.7c0.7-1.5,2-2.7,4.3-2.8v1.2c-2.4,0.1-4.3,1.2-4.3,4.6v7h-1.3V10.6z"/>
	<path fill="#B0B0AF" d="M105.3,6h1.8l6.2,17.2H112l-1.9-5.3h-7.8l-1.9,5.3h-1.3L105.3,6z M102.7,16.9h7l-3.5-9.8L102.7,16.9z"/>
	<path fill="#B0B0AF" d="M114.9,10.6h1.3v2.9c0.7-1.6,2.6-3.1,4.8-3.1c3.2,0,5.7,2.4,5.7,6.4V17c0,4-2.4,6.4-5.7,6.4
		c-2.5,0-4.1-1.5-4.8-3.1v7.3h-1.3V10.6z M125.3,17v-0.2c0-3.5-2-5.3-4.5-5.3c-2.5,0-4.7,1.9-4.7,5.3V17c0,3.4,2.1,5.3,4.7,5.3
		C123.5,22.3,125.3,20.4,125.3,17z"/>
	<path fill="#B0B0AF" d="M128.4,10.6h1.3v2.9c0.7-1.6,2.6-3.1,4.8-3.1c3.2,0,5.7,2.4,5.7,6.4V17c0,4-2.4,6.4-5.7,6.4
		c-2.5,0-4.1-1.5-4.8-3.1v7.3h-1.3V10.6z M138.8,17v-0.2c0-3.5-2-5.3-4.5-5.3c-2.5,0-4.7,1.9-4.7,5.3V17c0,3.4,2.1,5.3,4.7,5.3
		C137.1,22.3,138.8,20.4,138.8,17z"/>
	<path fill="#B0B0AF" d="M140.9,19.5h1.2c0.2,1.7,1.3,2.9,3.6,2.9c2.1,0,3.2-1,3.2-2.5c0-1.6-0.9-2.1-3.3-2.6
		c-3.1-0.6-4.3-1.3-4.3-3.5c0-2.1,2-3.4,4.1-3.4c2.3,0,4,0.9,4.4,3.4h-1.2c-0.3-1.6-1.3-2.3-3.2-2.3c-1.8,0-2.9,0.9-2.9,2.2
		c0,1.4,0.9,2,3.4,2.4c2.7,0.5,4.2,1.1,4.2,3.6c0,2.1-1.6,3.7-4.4,3.7C142.8,23.4,141.1,21.9,140.9,19.5z"/>
	<path fill="#B0B0AF" d="M155.4,18.5h0.8c0.3,2.3,1.8,4.2,5.4,4.2c3,0,4.8-1.7,4.8-4c0-2.7-1.3-3.5-4.9-4c-3.9-0.6-5.5-1.9-5.5-4.4
		c0-2.7,2.1-4.4,5.4-4.4c3.1,0,4.9,1.5,5.3,4.1h-0.8c-0.4-2.1-1.8-3.3-4.5-3.3c-2.8,0-4.5,1.3-4.5,3.6c0,2,1.1,3.1,4.7,3.7
		c3.9,0.6,5.6,1.6,5.6,4.8c0,2.6-2.1,4.7-5.7,4.7C157.7,23.4,155.8,21.2,155.4,18.5z"/>
	<path fill="#B0B0AF" d="M169.9,20.3v-8.9h-1.9v-0.7h1.9V7.7h0.8v2.9h3.5v0.7h-3.5v8.9c0,1.7,0.8,2.5,2.1,2.5c0.7,0,1.2-0.1,1.6-0.3
		v0.7c-0.4,0.1-0.9,0.3-1.6,0.3C170.9,23.4,169.9,22.3,169.9,20.3z"/>
	<path fill="#B0B0AF" d="M174.9,17v-0.2c0-3.8,2.8-6.4,6-6.4s6,2.5,6,6.4V17c0,3.8-2.7,6.4-6,6.4S174.9,20.7,174.9,17z M186.1,17
		v-0.2c0-3.6-2.4-5.7-5.1-5.7c-2.8,0-5.2,2.2-5.2,5.7V17c0,3.4,2.3,5.7,5.2,5.7C183.7,22.7,186.1,20.5,186.1,17z"/>
	<path fill="#B0B0AF" d="M188.7,10.6h0.8v2.9c0.6-1.6,2-2.9,4.4-3v0.7c-2.4,0.1-4.4,1.4-4.4,4.9v7h-0.8V10.6z"/>
	<path fill="#B0B0AF" d="M193.9,17v-0.2c0-3.8,2.4-6.4,5.7-6.4c3.1,0,5.4,2.1,5.4,6.1v0.4h-10.3c0,3.7,1.8,5.8,5,5.8
		c2.2,0,3.8-1,4.3-2.9h0.8c-0.6,2.3-2.5,3.7-5.1,3.7C196.1,23.4,193.9,20.8,193.9,17z M204.2,16.2c-0.1-3.3-1.9-5-4.6-5
		c-2.7,0-4.7,2-4.8,5H204.2z"/>
</g>
<g>
	<path fill="#00A1AA" d="M30,15.1c0,0.2,0,0.4,0,0.6l-1.5-1.5l-1-1c-0.1-2.5-0.3-5-0.7-7.4c-2.4-0.4-4.9-0.6-7.4-0.7l-2.5-2.5
		c0.2,0,0.4,0,0.6,0c4,0,7.9,0.3,11.6,0.9c0.5,3,0.7,6,0.8,9.2C30,13.5,30,14.3,30,15.1z"/>
</g>
<g>
	<path fill="#EC742B" d="M30,15.7c0,3.8-0.3,7.5-0.9,11c-3.7,0.6-7.6,0.9-11.6,0.9c-0.8,0-1.6,0-2.4,0l2.4-2.4
		c3.2,0,6.3-0.2,9.3-0.7c0.5-3,0.7-6.1,0.7-9.3c0-0.6,0-1.3,0-1.9l1,1L30,15.7z"/>
</g>
<g>
	<path fill="#D40A55" d="M8.2,24.4c-0.3-1.8-0.5-3.7-0.6-5.5l-2.4,2.4c0.1,1.9,0.4,3.7,0.6,5.5c3,0.5,6,0.7,9.2,0.8l2.4-2.4
		C14.3,25.1,11.2,24.9,8.2,24.4z"/>
</g>
<g>
	<path fill="#B21856" d="M7.5,15.1c0-3.2,0.2-6.3,0.7-9.3c3-0.5,6.1-0.7,9.3-0.7c0.6,0,1.3,0,1.9,0l-2.5-2.5c-3.8,0-7.5,0.3-11,0.9
		C5.3,7.2,5,11.1,5,15.1c0,2.1,0.1,4.1,0.2,6.1l2.4-2.4C7.5,17.6,7.5,16.4,7.5,15.1z"/>
</g>
</svg>
